<svg xmlns="http://www.w3.org/2000/svg" xmlns:xlink="http://www.w3.org/1999/xlink" version="1.1" x="0px" y="0px" viewBox="0 0 512 640" style="enable-background:new 0 0 512 512;" xml:space="preserve"><path d="M407.06,386.64l-21.74-191.32c-0.46-4.02-2.97-7.34-6.71-8.88c-3.75-1.54-7.86-0.94-11.02,1.61l-9.99,8.06  c-22.92-25.09-55.37-39.45-89.39-39.45c-66.73,0-121.02,54.29-121.02,121.02v15.5h-12.58v-44.75c0-75,61.02-136.02,136.02-136.02  c24.17,0,47.79,6.39,68.52,18.5l-10.56,22.63c-0.82,1.75-0.06,3.83,1.69,4.65c1.75,0.82,3.84,0.06,4.65-1.69l53.34-114.53  c2.52-5.41-0.18-11.85-5.84-13.75c-22.93-7.69-47.43-11.96-72.9-12.21c-6.68-0.06-13.3,0.17-19.85,0.66  c0.02,0.23,0.02,0.46-0.01,0.69l-6.64,56.31c-0.21,1.8-1.74,3.13-3.51,3.13c-0.14,0-0.28-0.01-0.42-0.02  c-1.94-0.23-3.33-1.99-3.1-3.93l6.55-55.53c-36.91,3.88-71.37,16.31-101.32,35.31l23.67,36.42c1.07,1.64,0.6,3.83-1.04,4.9  c-0.6,0.39-1.26,0.57-1.93,0.57c-1.16,0-2.29-0.57-2.97-1.61l-23.64-36.39c-26.17,17.71-48.64,40.52-65.95,66.99  c0.04,0.02,0.08,0.04,0.11,0.06l32.54,22.68c1.6,1.12,2,3.32,0.88,4.93c-0.69,0.99-1.79,1.52-2.91,1.52c-0.7,0-1.4-0.21-2.02-0.64  l-32.39-22.58c-16.03,26.2-27.11,55.73-31.9,87.29l39.27,4.07c1.94,0.2,3.36,1.94,3.16,3.89c-0.19,1.82-1.73,3.18-3.52,3.18  c-0.12,0-0.25-0.01-0.37-0.02l-39.42-4.09c-0.02,0-0.05-0.01-0.07-0.01c-1.1,9.05-1.69,18.25-1.73,27.57  c-0.05,14.83,1.26,29.34,3.82,43.42c0.54,2.97,3.13,5.14,6.15,5.14l69.7,0.27c0.23,0,0.46-0.02,0.69-0.07l43.5-8.7  c48.52-9.7,94.51-31.26,133.02-62.33l44.09-35.58c1.63-1.32,3.31-0.84,3.96-0.58c0.65,0.27,2.18,1.11,2.41,3.19l21.74,191.32  c0.06,0.56-0.25,0.88-0.45,1.03c-0.19,0.14-0.6,0.35-1.11,0.13l-8.6-3.74c-0.39-0.17-0.64-0.54-0.67-0.96l-3.46-55.41  c-0.32-5.19-3.89-9.66-8.88-11.12l-60.16-17.66c-2.97-0.87-6.09-0.31-8.57,1.55c-2.48,1.85-3.9,4.69-3.9,7.78V327  c0,5.02,3,9.52,7.64,11.44l48.47,20.14c3.6,1.5,5.93,4.98,5.93,8.88v64.65c0,14.85,4.29,29.29,12.4,41.73l14.07,21.6  c1.24,1.9,0.33,3.63,0.02,4.12c-0.31,0.49-1.48,2.04-3.74,1.73l-35.35-4.89c-15.4-2.13-29.89-8.47-41.9-18.34l-64.49-52.98  c-2.27-1.86-2.68-5.18-0.93-7.54l4.76-6.45c2.92-3.95,4.53-8.83,4.53-13.74v-48.96c0-4.48-1.98-8.68-5.43-11.54  c-3.45-2.86-7.95-4.02-12.35-3.18l-8.55,1.63c0,0,0,0,0,0l-55.54,10.55l-11.35-28.8c-0.71-1.8-2.74-2.68-4.54-1.97  c-1.8,0.71-2.68,2.74-1.97,4.54l12.24,31.06l0.27,2.43c1.73,15.76-3.71,31.22-14.92,42.43l-3.47,3.47  c-2.76,2.76-3.47,6.82-1.8,10.34c1.53,3.25,4.69,5.23,8.21,5.23c0.31,0,0.61-0.02,0.92-0.05l13.55-1.33  c17.77-1.74,34.29-10.79,45.32-24.84c6.22-7.92,10.59-17.32,12.64-27.17l4.05-19.45l6.26-1.19c2.34-0.44,4.74,0.17,6.58,1.69  c1.84,1.52,2.89,3.76,2.89,6.15v48.96c0,3.42-1.12,6.83-3.16,9.58l-4.76,6.45c-3.96,5.36-3.03,12.88,2.12,17.11l64.49,52.98  c13.01,10.69,28.71,17.56,45.39,19.86l35.35,4.89c0.51,0.07,1.02,0.11,1.53,0.11c3.67,0,7.06-1.84,9.07-5.02  c2.3-3.62,2.27-8.1-0.07-11.69l-14.07-21.6c-7.37-11.31-11.26-24.42-11.26-37.91v-64.65c0-6.74-4.02-12.76-10.24-15.35l-48.47-20.14  c-2.02-0.84-3.32-2.79-3.32-4.98v-17.98c0-0.87,0.4-1.66,1.09-2.18s1.57-0.68,2.4-0.43l60.16,17.66c2.17,0.64,3.72,2.58,3.86,4.84  l3.46,55.41c0.19,3.06,2.06,5.72,4.87,6.94l8.6,3.74c2.69,1.17,5.71,0.83,8.07-0.92C406.18,392.33,407.39,389.55,407.06,386.64z   M323.51,223.63c-37.63,30.37-82.58,51.44-129.99,60.92l-39.32,7.86v-14.73c0-62.87,51.15-114.02,114.02-114.02  c31.91,0,62.35,13.4,83.93,36.85L323.51,223.63z M170.29,406.26l-13.55,1.33c-1.35,0.13-1.93-0.8-2.12-1.2  c-0.19-0.41-0.53-1.45,0.42-2.4l3.47-3.47c5.22-5.22,9.32-11.26,12.23-17.79c-0.1,7.91,1.9,15.7,6.05,22.52  C174.65,405.7,172.48,406.05,170.29,406.26z"/><text x="0" y="527" fill="#000000" font-size="5px" font-weight="bold" font-family="'Helvetica Neue', Helvetica, Arial-Unicode, Arial, Sans-serif">Created by iconfield</text><text x="0" y="532" fill="#000000" font-size="5px" font-weight="bold" font-family="'Helvetica Neue', Helvetica, Arial-Unicode, Arial, Sans-serif">from the Noun Project</text></svg>